# xmcd
#
# Track frame offsets:
#	150
#	15834
#	29194
#	44662
#	69824
#	89206
#	108009
#	124124
#	142225
#	168183
#	186622
#
# Disc length: 2842 seconds
#
# Revision: 0
# Processed by: cddbd v1.5.2PL0 Copyright (c) Steve Scherf et al.
# Submitted via: EZCDAudioConverter 7.0.0.1
#
DISCID=9d0b180b
DTITLE=Jonny Lang - Signs
DYEAR=2017
DGENRE=Blues
TTITLE0=Make It Move
TTITLE1=Snakes
TTITLE2=Last Man Standing
TTITLE3=Signs
TTITLE4=What You're Made Of
TTITLE5=Bitter End
TTITLE6=Stronger Together
TTITLE7=Into The Light
TTITLE8=Bring Me Back Home
TTITLE9=Wisdom
TTITLE10=Singing Songs
EXTD=
EXTT0=
EXTT1=
EXTT2=
EXTT3=
EXTT4=
EXTT5=
EXTT6=
EXTT7=
EXTT8=
EXTT9=
EXTT10=
PLAYORDER=
